Coordinates
version=1
nRows=49
nColumns=12
inDegrees=yes

Units are S.I. units (second, meters, Newtons, ...)
Angles are in degrees

endheader
time	SC_y	SC_z	SC_x	AC_y	AC_z	AC_x	GH_y	GH_z	GH_yy	EL_x	PS_y
       0.0              -27.73          16.53          36.71          31.92          -10.7          17.38         -16.52          65.62         -40.89           26.8          37.79
   0.04175              -27.73          16.54          36.71          31.92          -10.7          17.38         -16.53          65.61         -40.88           26.8          37.79
    0.0835              -27.73          16.54           36.7          31.93          -10.7          17.38         -16.54          65.61         -40.87           26.8           37.8
    0.1252              -27.73          16.54           36.7          31.93         -10.69          17.38         -16.54          65.61         -40.86          26.79           37.8
     0.167              -27.73          16.55           36.7          31.94         -10.69          17.38         -16.55          65.61         -40.85          26.79          37.81
    0.2087              -27.74          16.55           36.7          31.94         -10.69          17.37         -16.56           65.6         -40.84          26.79          37.81
    0.2505              -27.74          16.55          36.69          31.95         -10.69          17.37         -16.57           65.6         -40.83          26.79          37.82
    0.2922              -27.74          16.56          36.69          31.95         -10.69          17.37         -16.58           65.6         -40.81          26.79          37.82
     0.334              -27.74          16.56          36.69          31.96         -10.68          17.37          -16.6          65.59          -40.8          26.79          37.83
    0.3757              -27.74          16.57          36.68          31.97         -10.68          17.37         -16.61          65.59         -40.79          26.78          37.83
    0.4175              -27.74          16.57          36.68          31.97         -10.68          17.37         -16.62          65.59         -40.77          26.78          37.84
    0.4592              -27.74          16.58          36.67          31.98         -10.68          17.36         -16.64          65.58         -40.75          26.78          37.85
     0.501              -27.74          16.58          36.67          31.99         -10.67          17.36         -16.65          65.58         -40.74          26.78          37.86
    0.5427              -27.75          16.59          36.66           32.0         -10.67          17.36         -16.67          65.57         -40.72          26.78          37.86
    0.5845              -27.75           16.6          36.66          32.01         -10.67          17.36         -16.69          65.57          -40.7          26.77          37.87
    0.6262              -27.75          16.61          36.65          32.02         -10.66          17.35         -16.71          65.56         -40.67          26.77          37.88
     0.668              -27.75          16.61          36.64          32.03         -10.66          17.35         -16.73          65.56         -40.65          26.77          37.89
    0.7097              -27.76          16.62          36.64          32.04         -10.65          17.35         -16.75          65.55         -40.62          26.76          37.91
    0.7515              -27.76          16.63          36.63          32.05         -10.65          17.34         -16.78          65.54         -40.59          26.76          37.92
    0.7932              -27.76          16.65          36.62          32.07         -10.64          17.34         -16.81          65.54         -40.56          26.75          37.93
     0.835              -27.76          16.66          36.61          32.08         -10.64          17.33         -16.84          65.53         -40.52          26.75          37.95
    0.8767              -27.77          16.67           36.6           32.1         -10.63          17.33         -16.87          65.52         -40.48          26.74          37.97
    0.9185              -27.77          16.69          36.59          32.12         -10.63          17.32         -16.91          65.51         -40.44          26.74          37.98
    0.9602              -27.78           16.7          36.58          32.14         -10.62          17.32         -16.95          65.49         -40.39          26.73          38.01
     1.002              -27.78          16.72          36.56          32.17         -10.61          17.31          -17.0          65.48         -40.34          26.73          38.03
     1.044              -27.79          16.74          36.54          32.19          -10.6           17.3         -17.05          65.47         -40.28          26.72          38.06
     1.085              -27.79          16.76          36.53          32.22         -10.59           17.3         -17.11          65.45         -40.21          26.71          38.08
     1.127               -27.8          16.79          36.51          32.26         -10.58          17.29         -17.18          65.43         -40.14           26.7          38.12
     1.169              -27.81          16.82          36.48          32.29         -10.56          17.28         -17.25          65.41         -40.05          26.69          38.15
     1.211              -27.81          16.85          36.46          32.34         -10.55          17.26         -17.34          65.39         -39.96          26.67           38.2
     1.252              -27.82          16.89          36.43          32.39         -10.53          17.25         -17.43          65.36         -39.85          26.66          38.24
     1.294              -27.84          16.93          36.39          32.44         -10.51          17.23         -17.54          65.33         -39.72          26.64           38.3
     1.336              -27.85          16.98          36.35          32.51         -10.48          17.22         -17.67           65.3         -39.58          26.62          38.36
     1.378              -27.86          17.04          36.31          32.59         -10.46          17.19         -17.82          65.26         -39.41           26.6          38.44
     1.419              -27.88          17.11          36.25          32.67         -10.42          17.17         -17.99          65.21         -39.21          26.57          38.52
     1.461               -27.9          17.19          36.19          32.78         -10.39          17.14         -18.19          65.15         -38.98          26.54          38.63
     1.503              -27.93          17.28          36.12           32.9         -10.34           17.1         -18.44          65.08          -38.7          26.51          38.75
     1.545              -27.96           17.4          36.03          33.05         -10.29          17.06         -18.73           65.0         -38.37          26.46          38.89
     1.586              -27.99          17.53          35.92          33.23         -10.22          17.01         -19.08          64.91         -37.97          26.41          39.07
     1.628              -28.04           17.7          35.79          33.45         -10.14          16.95         -19.51          64.79         -37.48          26.34          39.28
      1.67              -28.09          17.91          35.62          33.73         -10.04          16.87         -20.04          64.64         -36.87          26.26          39.55
     1.712              -28.16          18.17          35.42          34.07         -9.916          16.78          -20.7          64.46         -36.12          26.16          39.88
     1.753              -28.24          18.49          35.16          34.49         -9.761          16.66         -21.53          64.22         -35.17          26.03          40.29
     1.795              -28.35          18.91          34.83          35.04         -9.562          16.51         -22.59          63.93         -33.96          25.87          40.82
     1.837              -28.49          19.44          34.41          35.73         -9.309          16.31         -23.95          63.55         -32.42          25.67           41.5
     1.879              -28.67          20.12          33.87          36.63         -8.983          16.06         -25.69          63.07         -30.43           25.4          42.37
      1.92              -28.89          20.99          33.19          37.77         -8.568          15.74         -27.91          62.45          -27.9          25.06          43.48
     1.962              -29.18          22.08          32.32           39.2         -8.045          15.34         -30.71          61.68         -24.71          24.64          44.88
     2.004              -29.53          23.42          31.27          40.95         -7.408          14.85         -34.11          60.73         -20.83          24.12          46.58
